<?xml version="1.0" encoding="UTF-8" standalone="no"?>
<!-- Created with Inkscape (http://www.inkscape.org/) -->

<svg
   width="181.86488mm"
   height="122.46152mm"
   viewBox="0 0 181.86488 122.46152"
   version="1.1"
   id="svg1"
   xml:space="preserve"
   xmlns="http://www.w3.org/2000/svg"
   xmlns:svg="http://www.w3.org/2000/svg"><defs
     id="defs1" /><g
     id="layer1"
     transform="translate(-18.930542,-24.167287)"><g
       id="g15"
       transform="translate(1.0110723,-0.38126312)"><path
         style="fill:#ffffff;fill-opacity:0.996078;stroke:none;stroke-width:0.264583px;stroke-linecap:butt;stroke-linejoin:miter;stroke-opacity:1"
         d="m 116.65848,65.379682 5.32314,4.762815 12.88762,-17.090101 7.84464,-5.323147 20.73225,-9.245465 6.16365,3.642154 6.4438,18.210762 7.00414,-1.120661 -7.56447,-20.732255 3.08182,-6.723975 -3.08182,-4.482648 -7.56447,-1.96116 -5.88347,6.443808 -21.29259,8.685136 -6.44381,-1.680996 -4.20248,1.96116 v 8.124801 z"
         id="path29" /><path
         style="fill:#ffffff;fill-opacity:0.996078;stroke:none;stroke-width:0.264583px;stroke-linecap:butt;stroke-linejoin:miter;stroke-opacity:1"
         d="m 36.701692,56.873616 7.00414,-17.930598 -2.521489,-8.685133 7.564471,-5.603312 6.723973,3.922318 5.323147,3.922319 17.930598,7.284304 7.284307,-1.120661 3.642153,3.642154 1.120662,7.564469 12.047116,15.689273 -4.482645,3.92232 L 84.61001,50.99014 76.205042,46.227325 55.472787,38.382686 49.869476,40.904178 43.705832,59.955437 Z"
         id="path28"
         transform="translate(-1.0110723,0.38126312)" /><path
         style="fill:#f5d727;fill-opacity:1;stroke:#000000;stroke-width:0.264583px;stroke-linecap:butt;stroke-linejoin:miter;stroke-opacity:1"
         d="m 160.72868,80.446465 10.05845,-9.656104 3.2187,-4.023378 0.66955,-5.034894 11.1547,-2.677128 2.11939,1.784752 0.11155,4.573426 7.91983,8.923755 2.00785,10.820056 -4.35034,6.692816 -8.70066,4.684974 -2.23094,8.70066 -4.23878,1.78475 -4.23878,-2.78867 1.22701,-16.397404 -1.6732,-3.569502 -3.45796,4.127238 -7.80829,0.66928 -1.89629,-4.461878 z"
         id="path22" /><path
         style="fill:#f5d727;fill-opacity:1;stroke:#000000;stroke-width:0.264583px;stroke-linecap:butt;stroke-linejoin:miter;stroke-opacity:1"
         d="m 29.386314,60.907031 v 4.842063 l -9.146116,10.491133 -0.269004,9.415119 2.959038,4.842063 8.070101,2.959036 0.807011,10.222125 5.380069,3.49705 6.187078,-3.22804 V 90.497409 l 4.842062,3.228041 5.649071,-0.269005 1.076013,-4.304054 -2.959036,-10.222129 -3.228041,-7.532097 -3.766048,-4.304054 -0.807011,-5.380069 -9.415118,-3.497043 z"
         id="path21" /><path
         style="fill:#6e848c"
         d="m 53.830236,138.8573 c -7.236616,-0.49999 -10.246624,-6.72158 -2.175819,-8.50751 8.631956,-1.91011 17.031339,-8.48987 23.943366,-14.0996 3.686356,-12.33443 5.170498,-24.829627 9.631312,-36.923326 4.195662,-7.282761 12.037566,-9.845409 17.791505,-15.497624 5.88181,-4.964962 11.7761,2.891329 17.1798,5.537208 5.40574,2.646877 12.48819,4.21026 14.91466,10.178663 3.77976,8.933727 4.30953,18.803937 6.89406,28.096829 0.97353,4.53439 1.69329,9.85067 6.47801,12.02926 5.38409,3.1085 10.79595,6.11488 16.55076,8.48666 3.60648,1.00522 3.07819,6.22316 7.52423,5.04872 -4.79715,6.67397 -13.55951,8.61951 -21.38135,8.40696 -30.34632,1.54124 -60.77325,0.93821 -91.102201,-0.644 -2.687575,-0.2506 -3.599769,-1.58779 -6.248333,-2.11224 z"
         id="path17" /><path
         style="fill:#9dadaf;fill-opacity:0.996078;stroke:none;stroke-width:0.265;stroke-linecap:butt;stroke-linejoin:miter;stroke-dasharray:none;stroke-opacity:1"
         d="m 76.479793,117.06091 19.35407,-2.18514 -17.793258,12.4865 37.147325,0.62432 -62.43248,3.74595 z"
         id="path23"
         transform="translate(-1.0110723,0.38126312)" /><path
         style="fill:#4e768b"
         d="m 54.026628,138.6609 c -8.314658,0.028 -2.512416,-11.13121 5.174553,-10.39354 9.044665,-3.00705 14.948197,-8.08658 17.25582,-18.53634 2.201426,-10.284663 5.117784,-23.04728 10.341307,-31.357527 5.223523,-8.310247 13.09902,-9.212233 18.585242,-16.978515 7.06308,-3.817031 16.24546,8.501119 18.26238,9.662577 6.80581,4.851417 11.95759,8.174476 13.09843,16.918497 2.502,10.10658 0.50252,21.759988 7.50618,30.108848 6.18764,4.88728 15.36473,9.72063 22.60874,12.22762 9.96095,6.63743 -5.86939,12.06095 -13.41495,10.71697 -35.33455,1.31 -64.195563,1.25984 -99.417702,-2.36859 z m 64.526142,-6.00624 c 7.33258,-1.264 18.33795,2.10739 23.37702,-1.59314 -3.96082,-5.07208 -8.86703,-9.88921 -14.02524,-13.5417 -16.71044,-2.33043 -33.932488,-1.65381 -50.506266,1.58195 -8.372082,5.23049 -18.932387,11.02634 -28.225621,14.44828 22.471453,0.3024 46.908425,-0.81477 69.380107,-0.89539 z M 81.856153,115.0676 c 14.35708,-2.8516 29.095817,-2.62185 43.642737,-1.81074 3.75206,-7.3569 -5.71682,-13.866135 -12.44336,-11.59492 -10.09285,0.80746 -20.422587,-0.31764 -30.263722,2.63096 -2.736956,2.4501 -6.127499,8.91452 -0.935655,10.7747 z m 3.411757,-14.9533 c 12.395344,-2.505465 25.11243,-1.854355 37.66732,-1.457675 2.7183,-8.183359 -5.35591,-14.050237 -9.30442,-19.958766 -1.38912,-5.620404 7.85551,-10.409545 -1.00067,-12.93009 -8.8214,-3.299722 -17.890727,4.220646 -22.89323,10.43499 -5.106073,6.559023 -7.4553,14.932442 -6.88392,23.404497 0.356018,0.886824 1.834896,1.543874 2.41492,0.507044 z m 31.58902,-33.63006 2.37033,1.977215 z"
         id="path16" /><path
         style="fill:#9dadaf;fill-opacity:0.996078;stroke:none;stroke-width:0.264583px;stroke-linecap:butt;stroke-linejoin:miter;stroke-opacity:1"
         d="m 87.955218,101.52189 -1.248651,14.35947 5.618925,-0.93649 v -14.67163 z"
         id="path25" /><path
         style="fill:#9dadaf;fill-opacity:0.996078;stroke:none;stroke-width:0.264583px;stroke-linecap:butt;stroke-linejoin:miter;stroke-opacity:1"
         d="m 83.897108,101.20973 -4.058113,-0.31217 5.306761,-21.227041 5.618924,-5.618925 10.92569,-7.491896 6.86757,-5.931088 3.12162,1.560814 -8.42838,7.80406 -10.925688,8.428384 -3.74595,4.9946 z"
         id="path26" /><path
         style="fill:#9dadaf;fill-opacity:0.996078;stroke:none;stroke-width:0.264583px;stroke-linecap:butt;stroke-linejoin:miter;stroke-opacity:1"
         d="m 82.648457,116.19352 2.809462,-15.60812 -5.618924,0.93649 -2.185136,15.60812 z"
         id="path24" /><path
         style="fill:#1d3847"
         d="m 65.804456,143.11203 c -6.335326,-1.00485 -13.052601,-2.49012 -18.224086,-6.18041 -2.607822,-1.86091 -3.154692,-3.58691 -1.59459,-5.03276 0.356703,-0.33058 2.167591,-1.23382 4.024195,-2.0072 5.625937,-2.34352 9.793561,-4.31119 13.86772,-6.54738 4.453783,-2.44457 9.94631,-5.86952 10.637326,-6.63309 0.272348,-0.30094 0.865221,-2.17968 1.403736,-4.44826 0.512742,-2.16001 1.513589,-6.36807 2.224105,-9.35125 0.710515,-2.983173 1.83235,-7.983797 2.492966,-11.112495 2.082598,-9.863246 2.999827,-12.509747 5.378682,-15.519225 1.26552,-1.601002 4.522316,-4.11007 6.991483,-5.386308 0.981727,-0.507425 1.785399,-1.019421 1.785938,-1.137768 10e-4,-0.229362 -10.846861,-15.281338 -11.682996,-16.210704 -0.27259,-0.302985 -1.087454,-0.687494 -1.810809,-0.854464 -2.005719,-0.462976 -4.010159,-1.929337 -4.961812,-3.629847 -0.116059,-0.207385 -5.011087,-2.246895 -10.87784,-4.532244 -9.753846,-3.799537 -10.715673,-4.123457 -11.237548,-3.784534 -0.313898,0.203856 -1.273534,0.731601 -2.132524,1.172767 l -1.561802,0.802121 -3.134552,8.462544 c -1.724004,4.6544 -3.134553,8.569032 -3.134553,8.699182 0,0.130151 0.428288,0.710701 0.951751,1.290113 1.320339,1.461457 1.730485,2.586219 1.666278,4.569514 l -0.05426,1.676073 1.87749,2.037564 c 1.881353,2.041757 3.447336,4.620958 4.008769,6.602508 0.164921,0.582084 0.461259,2.400905 0.658527,4.041826 0.336419,2.798399 0.440546,3.126689 1.67842,5.291666 2.057053,3.59768 2.246513,4.681204 1.190079,6.806091 -1.788337,3.597022 -5.969561,4.702316 -9.446668,2.4972 -0.674216,-0.427575 -1.327497,-0.777409 -1.451738,-0.777409 -0.12424,0 -0.282071,2.11336 -0.350735,4.696354 -0.145316,5.466465 -0.417719,6.513375 -2.214847,8.512215 -1.545816,1.71932 -2.924334,2.25243 -5.371564,2.07733 -3.013055,-0.21558 -5.155481,-1.90742 -6.105838,-4.82168 -0.295264,-0.90543 -0.370299,-4.457159 -0.172865,-8.182405 0.03553,-0.670356 -0.0856,-0.798865 -1.018006,-1.08001 -1.563171,-0.471338 -2.810392,-1.180384 -3.641708,-2.07031 -0.492622,-0.527353 -1.136449,-0.864381 -1.936904,-1.013922 -3.483046,-0.650704 -5.725636,-3.152403 -6.478968,-7.227552 -0.33559,-1.815373 0.02661,-5.348001 0.807569,-7.876457 1.044197,-3.380716 3.953331,-7.269404 7.61116,-10.173965 l 2.181982,-1.732641 -0.163712,-1.392931 c -0.1918,-1.631915 0.183691,-2.982838 1.147433,-4.128181 0.857735,-1.019359 2.450792,-1.833759 3.587037,-1.833759 1.321511,0 1.700324,-0.429504 2.683604,-3.042709 0.492801,-1.309687 1.920043,-5.104654 3.17165,-8.433259 1.251606,-3.328606 2.275648,-6.218237 2.275648,-6.421404 0,-0.203166 -0.28762,-0.825012 -0.639155,-1.381879 -0.785065,-1.243623 -1.477512,-3.501608 -1.477512,-4.817984 0,-0.540342 0.240875,-1.762302 0.535277,-2.715466 1.275852,-4.130729 5.848543,-6.891132 10.272099,-6.200974 2.636056,0.411274 5.334779,2.35875 6.525871,4.709257 0.339426,0.669827 0.775255,1.341961 0.968508,1.493632 0.193253,0.15167 2.554025,1.119797 5.24616,2.151392 2.692136,1.031595 7.200764,2.775256 10.019174,3.874803 2.81841,1.099546 5.353231,1.999175 5.632936,1.999175 0.279704,0 1.009826,-0.265131 1.622493,-0.58918 0.86359,-0.456767 1.564114,-0.590558 3.11702,-0.595312 2.609353,-0.008 4.643579,0.953046 6.10212,2.882841 1.309595,1.732724 1.66673,3.123766 1.466991,5.713931 -0.148162,1.921326 -0.111471,2.154207 0.445985,2.830744 0.334086,0.405451 2.669001,3.535152 5.188701,6.954892 2.5197,3.419739 4.793613,6.443996 5.053133,6.720571 0.46056,0.490812 0.50093,0.473804 1.68445,-0.709717 1.98404,-1.984037 5.04651,-2.857806 8.08512,-2.306802 2.1544,0.390667 3.00815,0.824846 4.53878,2.30821 0.67698,0.65607 1.35501,1.149282 1.50674,1.096025 0.15173,-0.05326 2.78286,-3.429082 5.84694,-7.501835 5.40218,-7.180519 5.56505,-7.43318 5.37243,-8.334375 -0.31222,-1.460776 -0.1063,-3.937732 0.42773,-5.144993 1.62015,-3.662639 5.7429,-5.467367 9.4278,-4.127013 2.67038,0.971335 2.62579,0.976558 7.29675,-0.85456 2.3897,-0.936814 6.99762,-2.744269 10.23983,-4.016568 l 5.89491,-2.31327 0.63039,-1.232315 c 0.87017,-1.701057 2.64869,-3.424999 4.38082,-4.246402 1.25204,-0.593733 1.80614,-0.689851 3.96875,-0.688445 2.30712,0.0015 2.64392,0.07021 4.10104,0.836708 2.0213,1.063263 3.35054,2.446916 4.2782,4.453324 1.0412,2.25198 1.04949,5.17724 0.0206,7.276041 -0.39235,0.800365 -0.86435,1.663107 -1.04888,1.917206 -0.27831,0.383246 -0.22822,0.766598 0.29387,2.248958 3.04868,8.656012 5.36288,15.083725 5.54922,15.413002 0.12353,0.218281 0.95048,0.586991 1.83767,0.819355 1.96285,0.514092 3.30919,1.494885 4.05275,2.952383 0.45487,0.891606 0.53367,1.40779 0.42383,2.776166 l -0.13493,1.680916 1.37694,1.0172 c 2.47875,1.831162 4.58707,4.403127 5.97621,7.290437 1.56454,3.25189 2.09989,5.294183 2.29767,8.765322 0.32819,5.75986 -1.89344,9.832784 -6.03415,11.062442 -0.82382,0.244649 -1.81862,0.835313 -2.61938,1.555272 -0.9127,0.820595 -1.75315,1.290457 -2.86755,1.603142 -1.71962,0.482502 -1.89269,0.703073 -1.89269,2.412186 0,1.709942 -0.70712,5.079552 -1.34052,6.388002 -1.15908,2.39432 -4.07189,4.01618 -6.66204,3.70941 -2.78479,-0.32981 -4.55714,-1.83148 -5.37705,-4.55584 -0.51199,-1.70122 -0.47722,-3.04144 0.16236,-6.25816 0.90432,-4.548217 1.02328,-10.526568 0.20946,-10.526568 -0.1561,0 -0.71061,0.374733 -1.23225,0.832739 -1.46202,1.283672 -4.16916,2.446611 -5.73047,2.461707 -4.18426,0.04046 -7.38079,-2.93326 -7.38079,-6.866321 0,-2.828854 1.06536,-4.339156 5.04591,-7.153298 1.23369,-0.872185 2.04095,-1.756203 3.26198,-3.572127 0.89241,-1.327212 2.35345,-3.143987 3.24674,-4.037279 l 1.62416,-1.624166 -0.0758,-1.688305 c -0.0624,-1.389359 0.0489,-1.943167 0.62838,-3.127633 0.38731,-0.79163 1.0504,-1.695284 1.47353,-2.008121 0.42313,-0.312836 0.76402,-0.754761 0.75753,-0.982056 -0.006,-0.227295 -1.40548,-4.163041 -3.10886,-8.746101 l -3.09704,-8.332837 -1.5875,-0.803658 c -0.87313,-0.442012 -1.84346,-0.96991 -2.15631,-1.173106 -0.51924,-0.337259 -1.47595,-0.01645 -10.9802,3.681985 l -10.41141,4.051433 -1.71979,1.775574 c -1.6619,1.7158 -1.95852,1.889542 -4.81,2.81735 -0.51582,0.167836 -2.34258,2.449737 -6.70541,8.376068 -3.43495,4.66593 -5.93657,8.301429 -5.85628,8.510679 0.0771,0.20091 1.07937,0.853913 2.22728,1.451118 4.1426,2.155221 6.91085,5.032261 8.48862,8.822244 1.11485,2.677988 2.12745,6.69927 3.8648,15.348118 1.78769,8.899441 3.80814,17.759881 4.66835,20.472491 0.21309,0.67198 0.92988,1.27798 3.62589,3.06548 6.20411,4.11343 12.96839,7.61032 20.67158,10.68648 3.94906,1.57699 4.58222,1.92615 5.19845,2.86662 1.28921,1.96759 -9.2076,8.40622 -15.03127,9.29863 -46.27685,7.09139 -61.995593,5.96913 -92.426314,1.14247 z m 89.498814,-10.43472 c 5.99554,0 10.81757,-0.07 10.71562,-0.15563 -0.10195,-0.0856 -0.95927,-0.42776 -1.90515,-0.76037 -4.6052,-1.61936 -14.74277,-6.96765 -20.10833,-10.60858 -2.5535,-1.73274 -2.84596,-1.82772 -8.46667,-2.74978 -2.25557,-0.37002 -5.05354,-0.84919 -6.21771,-1.06484 -2.66071,-0.49285 -6.25655,-0.83648 -12.83229,-1.2263 -9.84449,-0.58359 -24.228422,0.21405 -34.39583,1.90737 l -4.894792,0.8152 -2.910416,1.92339 c -3.058436,2.02122 -6.428059,4.01683 -10.186458,6.03278 -2.889214,1.54973 -10.097646,4.78058 -12.013563,5.38452 -0.814102,0.25662 -1.480186,0.58347 -1.480186,0.72634 0,0.16988 16.225953,0.17605 46.897393,0.0178 25.793562,-0.13306 51.802842,-0.24192 57.798382,-0.24192 z M 81.431451,115.37619 c 2.796226,-0.65573 3.513198,-0.77641 7.483071,-1.25954 1.850665,-0.22523 4.079221,-0.5131 4.952345,-0.63971 3.122328,-0.45277 20.824833,-0.60831 26.458333,-0.23246 2.91042,0.19417 5.70838,0.3464 6.21771,0.33829 1.06394,-0.0169 9.87632,1.14068 11.61063,1.52521 0.63777,0.1414 1.20106,0.21562 1.25176,0.16492 0.12838,-0.12838 -2.29189,-10.33498 -2.50374,-10.55859 -0.26202,-0.27656 -5.13267,-1.20003 -8.10969,-1.53758 -1.45521,-0.16501 -3.07291,-0.41017 -3.59489,-0.54481 -3.62916,-0.93611 -19.13577,-1.31254 -28.155113,-0.68349 -5.037625,0.35135 -14.766246,1.71391 -15.507294,2.17191 -0.284794,0.17601 -0.6024,1.36363 -1.832974,6.85402 -0.553594,2.46994 -0.949367,4.5833 -0.879497,4.69636 0.170338,0.27561 0.185324,0.27392 2.609349,-0.29453 z m -41.153503,-9.98248 c 1.688311,-1.42062 1.709653,-1.54078 1.87415,-10.551817 l 0.14973,-8.202083 0.854794,-2.569791 c 0.470137,-1.413385 0.962053,-2.63608 1.093146,-2.7171 0.273546,-0.16906 0.452171,1.077126 0.65433,4.564962 0.158823,2.740164 0.606744,3.89662 2.042191,5.272582 1.605751,1.539209 3.516411,2.029163 4.9739,1.275466 1.989189,-1.028649 2.395503,-2.919571 1.052911,-4.900077 -1.856675,-2.73885 -2.36021,-4.082929 -2.652253,-7.079623 -0.310907,-3.190258 -0.606525,-4.523967 -1.307144,-5.897293 -0.673463,-1.320096 -2.6002,-3.398641 -4.411084,-4.758634 -2.512588,-1.88698 -2.654828,-2.225542 -1.403457,-3.340518 1.620248,-1.443648 0.715727,-3.428357 -2.116667,-4.644409 -3.671637,-1.576371 -7.209821,-1.911258 -8.676076,-0.821185 -0.902108,0.670664 -1.078453,2.133796 -0.43039,3.570943 0.437849,0.970975 0.435951,1.033993 -0.04735,1.572248 -0.276913,0.308401 -1.217853,1.044801 -2.090978,1.636445 -0.873125,0.591643 -2.661603,2.154745 -3.974396,3.473558 -3.699091,3.716055 -4.889145,6.432455 -4.889145,11.159891 0,1.492083 0.126365,3.048051 0.280811,3.457707 0.520704,1.381124 3.034261,3.530073 3.669675,3.137365 0.126929,-0.07845 0.3126,-0.827452 0.412602,-1.664458 0.212754,-1.780717 1.523455,-5.550609 1.862948,-5.358287 0.128438,0.07276 0.198511,1.579976 0.155716,3.349367 -0.06678,2.761273 -0.0021,3.388176 0.456387,4.424714 0.691688,1.563676 1.868548,2.317538 3.465287,2.219763 l 1.175302,-0.07197 0.702402,-2.38125 c 0.797252,-2.702805 1.85088,-5.173375 2.016999,-4.729502 0.06125,0.16367 -0.137115,2.723514 -0.440817,5.688541 -1.189811,11.616055 -1.198026,12.798825 -0.0975,14.037335 1.513094,1.70281 4.155666,2.09944 5.643976,0.84711 z M 180.9425,105.3192 c 1.08372,-0.66084 1.83725,-1.94351 2.19153,-3.73043 0.42931,-2.165413 0.85184,-10.373694 0.65975,-12.816546 -0.22543,-2.866856 0.16479,-2.445917 1.48282,1.599562 1.15857,3.556033 1.48201,3.829241 3.18791,2.692748 1.55467,-1.035739 1.95389,-2.233941 1.98517,-5.958199 0.0149,-1.780703 0.0965,-3.306966 0.18124,-3.391694 0.19854,-0.198539 1.18588,2.432832 1.74289,4.644961 0.23816,0.945885 0.45701,1.760428 0.48633,1.810095 0.12456,0.211024 1.2144,-0.309671 1.95829,-0.935619 1.31538,-1.106817 1.89618,-2.56315 2.04197,-5.120196 0.18029,-3.162032 -0.43781,-6.110274 -1.91111,-9.115738 -1.35861,-2.771479 -2.95972,-4.660813 -5.93743,-7.006274 -1.17538,-0.925813 -2.20427,-1.895083 -2.28643,-2.153933 -0.0822,-0.25885 0.0354,-0.827863 0.26113,-1.264471 0.5184,-1.00246 0.51864,-1.695622 9.6e-4,-2.696702 -0.49812,-0.963261 -1.30449,-1.298411 -3.12396,-1.298411 -2.87158,0 -6.66045,1.434291 -8.09006,3.062521 -1.02142,1.163335 -1.02619,1.92479 -0.0181,2.890604 0.43657,0.418253 0.79375,0.969351 0.79375,1.224662 0,0.259907 -0.72776,1.01346 -1.65364,1.712239 -2.51416,1.897481 -3.30841,2.707093 -4.77595,4.868307 -1.81318,2.670211 -3.32545,4.240875 -5.35866,5.565567 -2.23746,1.45776 -2.86496,2.471689 -2.70719,4.374297 0.20443,2.465044 1.84811,3.707059 4.6123,3.485176 2.72214,-0.218507 4.62836,-1.623166 6.42902,-4.737424 0.51732,-0.894706 1.05297,-1.637858 1.19034,-1.651448 0.43976,-0.04351 1.1904,1.551817 1.743,3.704384 0.85948,3.348005 0.94052,6.996957 0.25215,11.352155 -0.87597,5.542027 -0.92518,6.513687 -0.38727,7.647237 0.25349,0.5342 0.77266,1.1407 1.15371,1.34778 0.9984,0.54257 2.91827,0.49072 3.89554,-0.10521 z m -96.053342,-4.902 c 5.226757,-1.513489 21.517092,-2.390618 32.525622,-1.751298 3.05594,0.177473 6.50875,0.365821 7.67292,0.41855 2.49561,0.113035 6.98813,0.760874 9.34416,1.347468 0.91919,0.22885 1.72895,0.35839 1.79947,0.28787 0.15498,-0.15498 -1.79066,-9.880955 -2.69553,-13.474642 -0.73888,-2.934434 -1.83926,-6.108405 -2.45594,-7.084004 -1.67747,-2.653768 -4.13138,-4.642863 -9.14565,-7.413269 -4.24481,-2.345271 -5.40297,-3.28558 -6.79222,-5.514571 -2.2336,-3.583709 -4.06307,-4.74447 -6.701,-4.251651 -1.85991,0.34747 -2.92278,1.234614 -5.04912,4.21438 -1.29547,1.815415 -3.33552,3.479007 -6.116123,4.987502 -3.881988,2.106004 -6.002647,3.61238 -7.843814,5.571727 -2.14948,2.28745 -2.92533,3.781943 -3.869631,7.45393 -0.828089,3.220088 -3.469392,14.886658 -3.469392,15.324208 0,0.37559 1.281823,0.32232 2.796248,-0.1162 z M 98.986545,67.45586 c 0.626372,-0.453742 1.098035,-1.012355 1.098035,-1.300464 0,-0.604915 -10.68574,-15.199666 -11.212223,-15.313829 -0.201633,-0.04372 -0.782685,0.194403 -1.291227,0.529167 -0.508542,0.334764 -1.125665,0.727724 -1.371384,0.873245 -0.526809,0.311989 -0.671447,0.09175 6.363776,9.690189 2.546582,3.474406 4.784239,6.317101 4.972571,6.317101 0.188331,0 0.836535,-0.357934 1.440452,-0.795409 z m 28.626425,-6.851182 c 3.07543,-4.132865 5.64957,-7.665135 5.72031,-7.849489 0.0744,-0.193885 -0.26503,-0.52199 -0.80516,-0.778301 -0.51358,-0.243711 -1.07291,-0.610738 -1.24294,-0.815615 -0.17003,-0.204876 -0.50528,-0.372503 -0.74499,-0.372503 -0.47878,0 -11.6702,14.772996 -11.6702,15.404999 0,0.49939 2.12731,2.064551 2.70013,1.986603 0.24814,-0.03377 2.96742,-3.442829 6.04285,-7.575694 z M 41.510139,58.788364 c 0.410699,-0.270302 5.72752,-14.573523 5.762008,-15.500856 0.02594,-0.697368 -0.09186,-0.791722 -1.558464,-1.248302 -1.32914,-0.413786 -1.644263,-0.436169 -1.942456,-0.137976 -0.598766,0.598765 -6.119856,15.606384 -5.844581,15.886939 0.136275,0.138888 0.872324,0.454096 1.635665,0.700461 1.709119,0.551611 1.592411,0.533652 1.947828,0.299734 z M 179.34629,58.560165 c 0.71715,-0.236879 1.45238,-0.568196 1.63384,-0.736261 0.26042,-0.241184 -0.25373,-1.916206 -2.43997,-7.949184 -1.52346,-4.203986 -2.87645,-7.750144 -3.00666,-7.880352 -0.30409,-0.304089 -3.50496,0.343606 -3.65707,0.740007 -0.062,0.161457 0.53891,2.069512 1.33527,4.240122 0.79636,2.170611 1.99642,5.468125 2.66679,7.32781 1.69388,4.698984 1.68956,4.688546 1.9399,4.688546 0.1232,0 0.81076,-0.193809 1.5279,-0.430688 z M 84.547538,49.979111 c 3.214201,-0.89259 4.680635,-5.088984 2.653558,-7.593505 -1.389172,-1.716368 -2.04032,-2.047877 -4.022431,-2.047877 -1.505454,0 -1.958562,0.11429 -2.885788,0.727899 -3.383103,2.238832 -2.690753,7.428348 1.174891,8.806411 1.250378,0.445747 1.792359,0.464589 3.07977,0.107072 z m 53.311192,-0.12901 c 1.30743,-0.546279 2.14504,-1.352364 2.73619,-2.633205 1.17815,-2.552711 -0.0317,-5.471964 -2.73619,-6.601955 -2.23224,-0.932689 -4.74114,-0.129748 -6.07347,1.94373 -0.69546,1.082335 -0.77215,1.402503 -0.68568,2.862447 0.0802,1.353435 0.23915,1.818985 0.90001,2.635507 0.97679,1.206851 2.77921,2.202979 3.98614,2.202979 0.49111,0 1.33396,-0.184277 1.873,-0.409503 z M 75.521642,43.985775 c 0.104209,-0.610433 0.315687,-1.345716 0.469952,-1.633963 0.684457,-1.278919 1.43514,-0.902946 -12.74143,-6.381439 -2.723666,-1.052553 -5.104916,-1.854302 -5.291666,-1.781665 -0.46708,0.181673 -1.413897,3.593003 -1.08776,3.91914 0.138819,0.138819 4.106432,1.741057 8.816916,3.560528 4.710485,1.81947 8.626237,3.369848 8.701672,3.445283 0.415602,0.415601 0.961681,-0.128341 1.132316,-1.127884 z m 77.036688,-1.919827 c 10.18231,-3.8857 10.06599,-3.831775 9.85853,-4.570518 -0.0923,-0.328506 -0.32674,-1.192596 -0.52109,-1.920201 -0.20279,-0.759198 -0.52351,-1.356511 -0.75266,-1.401756 -0.40213,-0.0794 -17.58852,6.453085 -18.0431,6.858111 -0.14653,0.130564 -0.0522,0.827757 0.23618,1.746121 0.26406,0.840826 0.51892,1.677602 0.56636,1.859503 0.0474,0.181901 0.30337,0.330729 0.56875,0.330729 0.26538,0 3.90454,-1.305895 8.08703,-2.901989 z M 50.394017,39.365116 c 1.458625,-0.437014 3.256604,-2.103971 3.797785,-3.521034 1.498868,-3.924731 -1.3764,-8.325115 -5.4929,-8.406477 -1.530438,-0.03025 -3.579242,0.730407 -4.671565,1.734403 -0.9784,0.899284 -1.88098,3.05224 -1.883924,4.493788 -0.0029,1.402453 0.857754,3.379442 1.889455,4.340407 1.571054,1.463339 4.16387,2.017234 6.361149,1.358913 z m 122.552563,-0.01424 c 2.61926,-0.782617 4.53211,-4.154697 3.90295,-6.880362 -0.697,-3.019547 -3.17612,-5.002874 -6.2535,-5.002874 -5.69364,0 -8.23298,6.841595 -3.93876,10.611973 0.54297,0.476731 1.35366,1.026345 1.80153,1.221364 1.03046,0.448696 3.07693,0.471451 4.48778,0.0499 z"
         id="path15" /><path
         style="fill:#9dadaf;fill-opacity:0.996078;stroke:none;stroke-width:0.264583px;stroke-linecap:butt;stroke-linejoin:miter;stroke-opacity:1"
         d="m 95.115546,84.206577 c 0,0 7.198684,-3.161753 9.106324,-5.701815 1.87981,-2.503 4.33607,-8.20405 4.33607,-8.20405 0,0 0.37376,6.485169 -1.47299,8.828374 -2.68269,3.403859 -6.25294,4.909409 -11.969404,5.077491 z"
         id="path27" /></g></g></svg>
